<?xml version="1.0" encoding="UTF-8"?>
<!-- Generator: visioncortex VTracer 0.6.12 -->
<svg version="1.1"
    xmlns="http://www.w3.org/2000/svg" width="432" height="398">
    <path d="M0 0 C16.98332728 3.30161504 27.46364718 9.63167626 35.39453125 21.44921875 C42.27656958 32.38345483 44.86761407 43.40000816 42.359375 56.29296875 C39.94207149 65.21160414 39.21894081 67.92640779 39 71  C118.07363281 142.7853125 118.77617187 143.414375 119.5 144.0625 C120.0878125 144.58972656 120.675625 145.11695313 121.28125 145.66015625 C123.72087193 147.56195243 125.85818133 149 129 149 C144.04168765 144.4024072 155.08964627 145.82693138 164.61328125 151.578125 C173.96000837 158.55282557 180.71863604 167.40306651 183 179 C184.23296727 190.93512319 181.5323786 201.71760314 174.375 211.4375 C165.79991478 221.25605332 155.16064661 225.72943173 142.4375 226.6875 C140.29226165 226.80327477 138.14653455 226.91145163 136 227 C128.38951135 224.22741871 124.58308915 221.77453224 120.453125 219.375 C113.99737726 215.36238286 113.00674602 213.71503752 112.10546875 212.01953125 C110.98416541 209.97107251 109.73331108 208.06677095 108.4375 206.125 C102.90165143 197.154875 101.96305832 188.48948369 103 178 C104.01544447 174.16241117 105.3252289 170.59627188 107 167 C102.25272796 162.15382646 97.46441837 157.44178994 92.3125 153.02734375 C88.65753552 149.8230759 85.11534803 146.49653088 81.56738281 143.17456055 C74.07828125 136.84796875 73.5471875 136.4303125 73 136   C58.83797363 122.66216309 58.26579102 122.12510742 57.67626953 121.57177734 C55.2350545 119.28273825 52.78078493 117.00989988 50.3125 114.75 C49.52488281 114.02296875 48.73726562 113.2959375 47.92578125 112.546875 C46 111 46 111 44 111 C42.51953125 109.49609375 42.51953125 109.49609375 40.8125 107.4375 C31.8869969 96.94349845 31.8869969 96.94349845 28 95 C28 94.34 28 93.68 28 93 C27.401875 92.731875 26.80375 92.46375 26.1875 92.1875 C24.02775192 91.01506533 22.64209744 89.80630718 21 88 C20.13375 88.28875 19.2675 88.5775 18.375 88.875 C15.25 89.91666667 12.125 90.95833333 9 92 C9.33 144.47 9.66 196.94 10 251 C13.96 252.98 17.92 254.96 22 257 C30.02849518 263.67303495 37.30149101 273.32936703 39 284 C39.95829464 298.97138995 37.8958265 310.16143455 28 322 C20.14908265 330.3732237 10.0211034 335.45759188 -1.46875 336.1484375 C-7.04378493 336.23447199 -12.47521256 335.7128758 -18 335 C-18 334.34 -18 333.68 -18 333 C-18.70125 332.896875 -19.4025 332.79375 -20.125 332.6875 C-26.2239791 331.22904848 -29.64776869 328.35223131 -34 324 C-36.3125 323.1875 -36.3125 323.1875 -38 323 C-38.10570312 322.43410156 -38.21140625 321.86820312 -38.3203125 321.28515625 C-39.11249266 318.62179193 -40.34198663 316.75227391 -41.875 314.4375 C-47.0010222 306.05842525 -49.57582638 296.56935407 -47.54296875 286.8046875 C-47.04561375 284.86536082 -46.52401202 282.93229432 -46 281 C-46 277 -46 277 -47.609375 275.3671875 C-47.96257812 275.12097656 -47.96257812 275.12097656 -49.75 273.875 C-50.44609375 273.37742187 -51.1421875 272.87984375 -51.859375 272.3671875 C-54 271 -54 271 -55.953125 270.0703125 C-58.59416783 268.68930919 -60.70108835 266.89383234 -63 265 C-85.18222722 247.93925759 -85.18222722 247.93925759 -91 246 C-92.67366056 244.3403567 -94.33942266 242.67273383 -96 241 C-97.86225314 239.62015397 -99.76134334 238.28914015 -101.6875 237 C-105.76526679 234.25067901 -109.78556388 231.44391449 -113.74609375 228.52734375 C-114.55409424 227.93373047 -115.36209473 227.34011719 -116.19458008 226.72851562 C-117.79868046 225.54642819 -119.39887847 224.35902445 -120.99487305 223.16601562 C-121.73133057 222.62525391 -122.46778809 222.08449219 -123.2265625 221.52734375 C-123.88221191 221.03999756 -124.53786133 220.55265137 -125.21337891 220.05053711 C-127 219 -127 219 -130 219 C-131.56668581 219.74092361 -133.10596272 220.54073508 -134.625 221.375 C-143.17535865 225.72410173 -150.40049241 226.2121881 -159.9609375 225.97265625 C-163 226 -163 226 -166 227 C-166 226.01 -166 225.02 -166 224 C-166.86753906 223.89945313 -167.73507813 223.79890625 -168.62890625 223.6953125 C-178.86069349 221.58493228 -187.55590087 214.07234028 -193.4375 205.6875 C-195 203 -195 203 -195 201 C-195.99 201.33 -196.98 201.66 -198 202 C-198.061875 201.360625 -198.061875 201.360625 -198.375 198.125 C-198.74932613 194.66926453 -199.32035052 191.3324391 -200.0625 187.9375 C-200.99812058 183.50706137 -201.07657846 179.51812925 -201 175 C-201.5 172 -201.5 172 -202 170 C-201.34 169.67 -200.68 169.34 -200 169 C-199.32421875 167.25 -199.32421875 167.25 -198.6875 165 C-195.33587968 154.54888836 -188.86790526 144.00658458 -179.0625 138.5 C-178.051875 138.005 -177.04125 137.51 -176 137 C-175.67 136.67 -175.67 136.67 -174 135 C-161.88481173 130.04486429 -148.47703964 129.63949112 -136.28515625 134.47265625 C-133.14877952 135.91314198 -130.06120654 137.40676976 -127 139 C-126.53529297 138.56558594 -126.53529297 138.56558594 -124.18359375 136.3671875 C-122.93496419 135.20305167 -121.6862624 134.03899332 -120.4375 132.875 C-119.82841797 132.30523437 -119.21933594 131.73546875 -118.59179688 131.1484375 C-115.48119793 128.2517951 -112.34789006 125.38199786 -109.16015625 122.5703125 C-108.88046997 122.32289307 -108.88046997 122.32289307 -107.46508789 121.07080078 C-106 120 -106 120 -104 120 C-104 119.34 -104 118.68 -104 118 C-102.671875 116.66015625 -102.671875 116.66015625 -100.75 115.0625 C-96.49492205 111.45213083 -92.3884562 107.70654074 -88.30175781 103.90844727 C-85.29779202 101.13352139 -82.19458428 98.55025288 -79 96 C-78.5565625 95.54625 -78.5565625 95.54625 -76.3125 93.25 C-74 91 -74 91 -72 91 C-72 90.34 -72 89.68 -72 89 C-70.6015625 87.58984375 -70.6015625 87.58984375 -68.625 85.9375 C-64.44513613 82.38127479 -60.33519945 78.76161845 -56.27734375 75.06640625 C-54.95457045 73.86615397 -53.61928131 72.67890169 -52.25390625 71.52734375 C-49.63638093 69.22125203 -49.0228491 68.24220042 -48.6875 64.6875 C-48.7390625 64.2440625 -48.7390625 64.2440625 -49 62 C-50.65 61.34 -52.3 60.68 -54 60 C-53.814375 59.195625 -53.62875 58.39125 -53.4375 57.5625 C-53.293125 56.716875 -53.14875 55.87125 -53 55 C-53.33 54.67 -53.66 54.34 -54 54 C-53.69096017 52.66082739 -53.34976758 51.32911682 -53 50 C-52.6503582 47.66905466 -52.31445513 45.33595238 -52 43 C-52.66 42.67 -53.32 42.34 -54 42 C-53.01 42 -52.02 42 -51 42 C-50.9175 40.88625 -50.835 39.7725 -50.75 38.625 C-49.70705947 30.44081391 -46.2180897 23.3166349 -41 17 C-40.34 17 -39.68 17 -39 17 C-38.77183594 16.4225 -38.54367188 15.845 -38.30859375 15.25 C-33.65724965 7.25246507 -23.38903716 3.58020306 -15 1 C-13.96875 0.566875 -12.9375 0.13375 -11.875 -0.3125 C-7.69621166 -1.31177547 -4.19495755 -0.75245875 0 0 Z M-20.7734375 35.0859375 C-24.44630375 40.81748038 -24.74479806 46.3619873 -24 53 C-22.23630701 58.94244285 -19.02084002 62.51615183 -14 66 C-8.32309898 68.67369799 -1.94032281 69.29383734 4.09375 67.3125 C9.35518736 64.54332244 12.82027111 60.52799048 15.3125 55.1875 C16.83477539 48.12967773 16.58806295 42.43376805 13 36 C9.10713036 31.21733159 4.13951476 27.72341035 -2.01171875 26.6484375 C-9.98317121 26.30389535 -15.76731642 28.96113014 -20.7734375 35.0859375 Z M-51 59 C-50 61 -50 61 -50 61 Z M-30 86 C-38.13222786 92.84159694 -46.06310454 99.84157104 -53.80175781 107.1262207 C-57.51194514 110.61755962 -61.25707239 114.04563134 -65.12109375 117.3671875 C-67.40691063 119.35361465 -69.63735951 121.39699321 -71.875 123.4375 C-76.14295505 127.30781949 -80.58133618 130.8811714 -85.1640625 134.37109375 C-85.76992187 134.90863281 -86.37578125 135.44617188 -87 136 C-87 136.66 -87 137.32 -87 138 C-87.55429688 138.23460937 -88.10859375 138.46921875 -88.6796875 138.7109375 C-91.58417725 140.32454292 -93.70620005 142.34723795 -96.125 144.625 C-101.22427905 149.34680887 -106.5092118 153.73600396 -112 158 C-111.12184497 162.66360001 -109.88341924 167.19737625 -108.62109375 171.76953125 C-107.15507342 179.39468099 -108.38654189 185.90598966 -110.37304688 193.26367188 C-110.83203125 195.29296875 -110.83203125 195.29296875 -111 199 C-107.70305711 203.48676703 -102.74627004 206.47892372 -98.1875 209.625 C-97.44411377 210.14425049 -96.70072754 210.66350098 -95.93481445 211.19848633 C-90.2061082 215.19180815 -84.43719962 219.12657454 -78.6706543 223.06494141 C-73.71196161 226.46817049 -68.90987575 230.0488054 -64.12109375 233.6875 C-58.52121044 237.83660002 -52.73993397 241.72220592 -46.97949219 245.64355469 C-45.04224308 246.97105297 -43.11681717 248.31389725 -41.1953125 249.6640625 C-40.60226318 250.07978516 -40.00921387 250.49550781 -39.39819336 250.92382812 C-37.78874155 252.05391274 -36.18140788 253.18701226 -34.57421875 254.3203125 C-32 256 -32 256 -29 257 C-26.08203125 255.78515625 -26.08203125 255.78515625 -22.8125 254.0625 C-21.72582031 253.49660156 -20.63914062 252.93070313 -19.51953125 252.34765625 C-19.10380859 252.12529297 -19.10380859 252.12529297 -17 251 C-17.99 250.67 -18.98 250.34 -20 250 C-20 249.01 -20 248.02 -20 247 C-19.01 246.67 -18.02 246.34 -17 246 C-17 244.71222656 -17 243.42445313 -17 242.09765625 C-17 192.06510417 -17 142.03255208 -17 92 C-18.32 92.66 -19.64 93.32 -21 94 C-21.08121094 93.38640625 -21.16242188 92.7728125 -21.24609375 92.140625 C-22 90 -22 90 -23.84765625 88.734375 C-24.57855469 88.40953125 -25.30945313 88.0846875 -26.0625 87.75 C-26.79597656 87.41484375 -27.52945313 87.0796875 -28.28515625 86.734375 C-28.85105469 86.49203125 -29.41695313 86.2496875 -30 86 Z M-166.9375 162.625 C-167.618125 163.40875 -168.29875 164.1925 -169 165 C-168.01 165 -167.02 165 -166 165 C-166.78375 165.268125 -167.5675 165.53625 -168.375 165.8125 C-171 167 -171 167 -173 170 C-174.63304268 176.29140162 -174.92793503 183.10702608 -172.9375 189.3125 C-169.05989776 194.69110956 -164.7600643 198.58907783 -158.09765625 199.80859375 C-150.97607948 200.45842105 -145.77121225 199.12513188 -139.953125 194.86328125 C-135.5136355 190.62800827 -133.83339201 185.48047553 -133.5625 179.4375 C-133.94420536 172.78657326 -135.69288751 167.89920467 -140.4375 163.125 C-148.14573868 156.91005479 -159.38657843 155.87736796 -166.9375 162.625 Z M139 172 C139 172.99 139 173.98 139 175 C138.67 174.34 138.34 173.68 138 173 C134.19510255 174.49478114 132.33809165 176.69442214 130 180 C128.57493816 184.27518553 128.06924356 187.93744373 129.9765625 192.1640625 C132.19494626 195.90673448 133.78955993 198.46755154 138 200 C142.83093346 200.55436941 147.42537501 200.59048437 152 198.875 C154.58891808 196.4478893 155.798372 194.33785556 157 191 C156.625 188.375 156.625 188.375 156 186 C156.103125 185.6803125 156.103125 185.6803125 156.625 184.0625 C157.24432648 180.65620437 155.83027703 178.83397733 154 176 C149.64797649 172.06245492 146.38203957 171.59950972 140.7578125 171.859375 C140.17773438 171.90578125 139.59765625 171.9521875 139 172 Z M-18 247 C-17 249 -17 249 -17 249 Z M-17.625 279.625 C-21.18868803 284.48457459 -21.76156242 289.15375157 -21.4765625 295.09375 C-20.59912609 300.44467367 -18.51526623 304.14775374 -14.1328125 307.375 C-9.74939358 309.83107908 -6.05584771 310.64347153 -1 310 C4.09862129 308.32976199 7.80951288 306.38691979 11 302 C10.8125 298.1875 10.8125 298.1875 10 295 C10.99 295 11.98 295 13 295 C13 292.36 13 289.72 13 287 C12.01 287 11.02 287 10 287 C10.66 286.67 11.32 286.34 12 286 C10.65650696 281.29777437 8.07794582 278.55104373 4 276 C-4.27205272 272.95240163 -11.15631243 273.15631243 -17.625 279.625 Z M11 296 " fill="#EAEBEB" transform="translate(216,20)"/>

    <path d="M0 0 C12.13403101 0.19415856 13.76768962 0.82009786 16.0625 2.1875 C-36.39481475 94.29604599 -36.39481475 94.29604599 -38.9375 96.1875    C-59.63714057 96.29858199 -62.78711045 96.2491979 -65.9375 96.1875   C-19.36532033 8.93495816 -18.57941787 7.51486729 -17.81689453 6.08251953 C-13.72774025 -1.53650575 -7.86000708 0.00459918 0 0 Z " fill="#65937A" transform="translate(384.9375,282.8125)"/>


</svg>
