<?xml version="1.0" encoding="UTF-8"?>
<!-- Generator: visioncortex VTracer 0.6.12 -->
<svg version="1.1"
    xmlns="http://www.w3.org/2000/svg" width="432" height="398">
    <path d="M0 0 
C16.98332728 3.30161504 27.46364718 9.63167626 35.39453125 21.44921875 
C42.27656958 32.38345483 44.86761407 43.40000816 42.359375 56.29296875 
C39.94207149 65.21160414 39.21894081 67.92640779 39 71  
C118.07363281 142.7853125 118.77617187 143.414375 119.5 144.0625 
C120.0878125 144.58972656 120.675625 145.11695313 121.28125 145.66015625 
C123.72087193 147.56195243 125.85818133 149 129 149 
C144.04168765 144.4024072 155.08964627 145.82693138 164.61328125 151.578125 
C173.96000837 158.55282557 180.71863604 167.40306651 183 179 
C184.23296727 190.93512319 181.5323786 201.71760314 174.375 211.4375 
C165.79991478 221.25605332 155.16064661 225.72943173 142.4375 226.6875 
C140.29226165 226.80327477 138.14653455 226.91145163 136 227 
C128.38951135 224.22741871 124.58308915 221.77453224 120.453125 219.375 
C113.99737726 215.36238286 113.00674602 213.71503752 112.10546875 212.01953125 
C110.98416541 209.97107251 109.73331108 208.06677095 108.4375 206.125 
C102.90165143 197.154875 101.96305832 188.48948369 103 178 
C104.01544447 174.16241117 105.3252289 170.59627188 107 167 
C24.02775192 91.01506533 22.64209744 89.80630718 21 88 
C15.25 89.91666667 12.125 90.95833333 9 92 
C9.33 144.47 9.66 196.94 10 251 
C30.02849518 263.67303495 37.30149101 273.32936703 39 284 
C39.95829464 298.97138995 37.8958265 310.16143455 28 322 
C20.14908265 330.3732237 10.0211034 335.45759188 -1.46875 336.1484375 
C-26.2239791 331.22904848 -29.64776869 328.35223131 -34 324 
C-47.0010222 306.05842525 -49.57582638 296.56935407 -47.54296875 286.8046875 
C-46 277 -46 277 -47.609375 275.3671875 
C-127 219 -127 219 -130 219 
C-143.17535865 225.72410173 -150.40049241 226.2121881 -159.9609375 225.97265625 
C-178.86069349 221.58493228 -187.55590087 214.07234028 -193.4375 205.6875 
C-200.99812058 183.50706137 -201.07657846 179.51812925 -201 175 
C-195.33587968 154.54888836 -188.86790526 144.00658458 -179.0625 138.5 
C-161.88481173 130.04486429 -148.47703964 129.63949112 -136.28515625 134.47265625 
C-133.14877952 135.91314198 -130.06120654 137.40676976 -127 139 
C-49.63638093 69.22125203 -49.0228491 68.24220042 -48.6875 65.6875 
C-49.70705947 30.44081391 -46.2180897 23.3166349 -41 17 
C-33.65724965 7.25246507 -23.38903716 3.58020306 -15 1 

C-7.69621166 -1.31177547 -4.19495755 -0.75245875 0 0 Z M-20.7734375 35.0859375 
C-24.44630375 40.81748038 -24.74479806 46.3619873 -24 53 
C-22.23630701 58.94244285 -19.02084002 62.51615183 -14 66 
C-8.32309898 68.67369799 -1.94032281 69.29383734 4.09375 67.3125 
C9.35518736 64.54332244 12.82027111 60.52799048 15.3125 55.1875 
C16.83477539 48.12967773 16.58806295 42.43376805 13 36 
C9.10713036 31.21733159 4.13951476 27.72341035 -2.01171875 26.6484375 
C-9.98317121 26.30389535 -15.76731642 28.96113014 -20.7734375 35.0859375 Z M-51 59 
C-50 61 -50 61 -50 61 Z M-30 86 
C-101.22427905 149.34680887 -106.5092118 153.73600396 -112 158 
C-111.12184497 162.66360001 -109.88341924 167.19737625 -108.62109375 171.76953125 
C-107.15507342 179.39468099 -108.38654189 185.90598966 -110.37304688 193.26367188 
C-110.83203125 195.29296875 -110.83203125 195.29296875 -111 199 
C-32 256 -32 256 -29 257 
C-19.10380859 252.12529297 -19.10380859 252.12529297 -17 251 
C-17 192.06510417 -17 142.03255208 -17 92 
C-26.79597656 87.41484375 -27.52945313 87.0796875 -28.28515625 86.734375 
C-28.85105469 86.49203125 -29.41695313 86.2496875 -30 86 Z M-166.9375 162.625 
C-167.618125 163.40875 -168.29875 164.1925 -169 165 
C-171 167 -171 167 -173 170 
C-174.63304268 176.29140162 -174.92793503 183.10702608 -172.9375 189.3125 
C-169.05989776 194.69110956 -164.7600643 198.58907783 -158.09765625 199.80859375 
C-150.97607948 200.45842105 -145.77121225 199.12513188 -139.953125 194.86328125 
C-135.5136355 190.62800827 -133.83339201 185.48047553 -133.5625 179.4375 
C-133.94420536 172.78657326 -135.69288751 167.89920467 -140.4375 163.125 
C-148.14573868 156.91005479 -159.38657843 155.87736796 -166.9375 162.625 Z M139 172 
C134.19510255 174.49478114 132.33809165 176.69442214 130 180 
C128.57493816 184.27518553 128.06924356 187.93744373 129.9765625 192.1640625 
C132.19494626 195.90673448 133.78955993 198.46755154 138 200 
C142.83093346 200.55436941 147.42537501 200.59048437 152 198.875 
C154.58891808 196.4478893 155.798372 194.33785556 157 191 
C157.24432648 180.65620437 155.83027703 178.83397733 154 176 
C149.64797649 172.06245492 146.38203957 171.59950972 140.7578125 171.859375 
C140.17773438 171.90578125 139.59765625 171.9521875 139 172 Z M-18 247 
C-17 249 -17 249 -17 249 Z M-17.625 279.625 
C-21.18868803 284.48457459 -21.76156242 289.15375157 -21.4765625 295.09375 
C-20.59912609 300.44467367 -18.51526623 304.14775374 -14.1328125 307.375 
C-9.74939358 309.83107908 -6.05584771 310.64347153 -1 310 
C4.09862129 308.32976199 7.80951288 306.38691979 11 302 
C10.65650696 281.29777437 8.07794582 278.55104373 4 276 
C-4.27205272 272.95240163 -11.15631243 273.15631243 -17.625 279.625 Z M11 296 " fill="#EAEBEB" transform="translate(216,20)"/>

    <path d="M0 0 
C12.13403101 0.19415856 13.76768962 0.82009786 16.0625 2.1875 
C-36.39481475 94.29604599 -36.39481475 94.29604599 -38.9375 96.1875    
C-59.63714057 96.29858199 -62.78711045 96.2491979 -65.9375 96.1875   
C-19.36532033 8.93495816 -18.57941787 7.51486729 -17.81689453 6.08251953 
C-13.72774025 -1.53650575 -7.86000708 0.00459918 0 0 Z " fill="#65937A" transform="translate(384.9375,282.8125)"/>


</svg>
