<?xml version="1.0" encoding="UTF-8"?>
<!-- Generator: visioncortex VTracer 00 -->
<svg version="1.1"
    xmlns="http://www.w3.org/2000/svg" width="432" height="398">
    <path d="M0 0 
C16 3 27 9 35 21
C42 32 44 43 42 56 
C39 65 39 67 39 71  
C118 142 118 143 119 144 
C120 144 120 145 121 145 
C123 147 125 149 129 149 
C144 144 155 145 164 151 
C173 158 180 167 183 179 
C184 190 181 201 174 211 
C165 221 155 225 142 226 
C140 226 138 226 136 227 
C128 224 124 221 120 219 
C113 215 113 213 112 212 
C110 209 109 208 108 206 
C102 197 101 188 103 178 
C104 174 105 170 107 167 
C24 91 22 89 21 88 
C15 89 12 90 9 92 
C9 144 9 196 10 251 
C30 263 37 273 39 284 
C39 298 37 310 28 322 
C20 330 10 335 -1 336 
C-26 331 -29 328 -34 324 
C-47 306 -49 296 -47 286 
C-46 277 -46 277 -47 275 
C-127 219 -127 219 -130 219 
C-143 225 -150 226 -159 225 
C-178 221 -187 214 -193 205 
C-200 183 -202 179 -201 175 
C-195 154 -189 144 -180 138 
C-162 130 -149 129 -137 134 
C-134 135 -131 137 -127 139 
C-50 69 -50 68 -49 65 
C-50 30 -47 23 -41 17 
C-34 7 -24 3 -15 1 

C-8 -2 -5 -1 0 0 Z M-21 35 
C-25 40 -25 46 -24 53 
C-23 58 -20 62 -14 66 
C-9 68 -2 69 4 67 
C9 64 12 60 15 55 
C16 48 16 42 13 36 
C9 31 4 27 -3 26 
C-10 26 -16 28 -21 35 Z M-51 59 
C-50 61 -50 61 -50 61 Z M-30 86 
C-102 149 -107 153 -112 158 
C-112 162 -110 167 -109 171 
C-108 179 -109 185 -111 193 
C-111 195 -111 195 -111 199 
C-32 256 -32 256 -29 257 
C-20 252 -20 252 -17 251 
C-17 192 -17 142 -17 92 
C-27 87 -28 87 -29 86 
C-29 86 -30 86 -30 86 Z M-167 162 
C-168 163 -169 164 -169 165 
C-171 167 -171 167 -173 170 
C-175 176 -175 183 -173 189 
C-170 194 -165 198 -159 199 
C-151 200 -146 199 -140 194 
C-136 190 -134 185 -134 179 
C-134 172 -136 167 -141 163 
C-149 156 -160 155 -167 162 Z M139 172 
C134 174 132 176 130 180 
C128 184 128 187 129 192 
C132 195 133 198 138 200 
C142 200 147 200 152 198 
C154 196 155 194 157 191 
C157 180 155 178 154 176 
C149 172 146 171 140 171 
C140 171 139 171 139 172 Z M-18 247 
C-17 249 -17 249 -17 249 Z M-18 279 
C-22 284 -22 289 -22 295 
C-21 300 -19 304 -15 307 
C-10 309 -7 310 -1 310 
C4 308 7 306 11 302 
C10 281 8 278 4 276 
C-5 272 -12 273 -18 279 Z M11 296 " fill="#EAEBEB" transform="translate(216,20)"/>

    <path d="M0 0 
C12 0 13 0 16 2 
C-37 94 -37 94 -39 96    
C-60 96 -63 96 -66 96   
C-20 8 -19 7 -18 6 
C-14 -2 -8 0 0 0 Z " fill="#65937A" transform="translate(384,282)"/>
</svg>